<svg version="1.0" xmlns="http://www.w3.org/2000/svg" width="559.000000pt" height="397.000000pt" viewBox="0 0 559.000000 397.000000" preserveAspectRatio="xMidYMid meet">

    <g transform="translate(0.000000,397.000000) scale(0.100000,-0.100000)" fill="#FFF" stroke="none">
        <path d="M2496 2938 c-8 -13 -49 -113 -91 -223 -58 -150 -315 -802 -352 -892
-4 -11 73 -42 80 -32 2 2 54 135 116 294 218 561 304 780 310 787 6 7 1097
-265 1108 -276 6 -5 -47 -168 -118 -364 -27 -74 -49 -140 -49 -148 0 -11 47
-44 64 -44 2 0 13 26 24 58 191 548 193 554 174 566 -15 9 -1207 296 -1230
296 -12 0 -28 -10 -36 -22z" />
        <path d="M2615 2567 c-66 -66 -67 -168 -1 -208 40 -25 109 -23 114 4 3 13 -4
17 -30 17 -76 0 -103 69 -55 141 28 41 60 48 98 20 36 -27 39 -26 39 4 0 30
-43 55 -96 55 -27 0 -44 -8 -69 -33z" />
        <path d="M2831 2542 c-12 -23 -73 -223 -69 -227 2 -2 12 -5 22 -7 16 -2 23 11
44 84 14 48 28 86 30 83 2 -2 13 -45 23 -96 21 -101 32 -121 62 -117 17 2 27
24 54 113 33 112 35 135 9 135 -13 0 -56 -116 -56 -150 0 -6 -4 -9 -9 -6 -5 3
-16 46 -26 95 -16 83 -19 91 -46 100 -24 8 -31 7 -38 -7z" />
        <path d="M3094 2469 c-12 -20 -72 -224 -67 -231 2 -5 13 -8 23 -8 13 0 22 10
28 33 8 31 10 32 61 32 46 1 57 5 77 28 47 55 28 107 -51 136 -65 24 -62 24
-71 10z m80 -55 c22 -21 20 -50 -5 -67 -25 -18 -59 -11 -59 14 0 31 19 69 34
69 8 0 22 -7 30 -16z" />
        <path d="M3276 2328 c-32 -108 -41 -122 -66 -108 -25 14 -38 -20 -14 -37 23
-17 69 -17 82 0 11 13 76 217 70 221 -1 2 -12 6 -24 10 -18 6 -23 -3 -48 -86z" />
        <path d="M2484 2220 c-55 -22 -69 -91 -30 -137 19 -22 32 -28 65 -28 50 0 79
26 87 76 10 63 -62 115 -122 89z" />
        <path d="M2711 2114 c-49 -62 -13 -112 106 -147 l82 -25 34 38 c19 20 50 48
68 62 l32 26 -115 36 c-142 44 -179 46 -207 10z" />
        <path d="M3166 2089 c-135 -33 -262 -151 -306 -284 -18 -56 -22 -83 -18 -163
3 -82 8 -107 34 -162 104 -219 362 -316 578 -217 30 14 58 22 63 18 5 -3 60
-72 122 -154 62 -81 121 -152 131 -157 52 -28 97 2 84 57 -4 16 -60 99 -126
186 l-120 158 32 49 c88 137 93 330 14 466 -37 63 -126 141 -201 177 -58 27
-81 32 -158 34 -49 1 -107 -2 -129 -8z m257 -107 c75 -35 139 -98 175 -172 23
-47 27 -68 27 -145 0 -77 -4 -98 -26 -145 -37 -78 -87 -131 -161 -171 -60 -32
-68 -34 -163 -34 -87 0 -106 3 -149 25 -77 39 -132 94 -168 168 -30 60 -33 75
-33 157 0 78 4 97 27 145 91 183 293 256 471 172z" />
        <path d="M2365 1876 c-31 -13 -55 -51 -55 -85 0 -28 37 -69 68 -76 97 -21 153
104 69 155 -37 23 -42 24 -82 6z" />
        <path d="M2600 1775 c-31 -33 -31 -79 1 -109 13 -13 58 -33 99 -45 41 -12 83
-24 93 -27 15 -5 17 3 17 79 l0 85 -69 21 c-89 27 -112 26 -141 -4z" />
        <path d="M1742 1628 c6 -117 36 -186 113 -256 44 -40 108 -73 426 -217 206
-93 399 -178 429 -188 44 -15 76 -18 155 -15 113 4 178 28 251 91 40 35 121
143 113 151 -2 2 -23 6 -46 10 -39 6 -43 4 -63 -28 -78 -127 -246 -178 -368
-111 -83 45 -130 121 -153 246 l-12 66 -371 151 c-204 83 -395 160 -425 172
l-53 21 4 -93z" />
    </g>
</svg>